<?xml version="1.0" encoding="utf-8"?>
<!-- Generator: Adobe Illustrator 18.0.0, SVG Export Plug-In . SVG Version: 6.00 Build 0)  -->
<!DOCTYPE svg PUBLIC "-//W3C//DTD SVG 1.1//EN" "http://www.w3.org/Graphics/SVG/1.1/DTD/svg11.dtd">
<svg version="1.1" xmlns="http://www.w3.org/2000/svg" xmlns:xlink="http://www.w3.org/1999/xlink" x="0px" y="0px"
	 viewBox="0 0 666 503.9" enable-background="new 0 0 666 503.9" xml:space="preserve">
<g id="Layer_1" display="none">
	<rect y="-0.1" display="inline" fill="none" stroke="#000000" stroke-miterlimit="10" width="657" height="504"/>
	<g display="inline">
		<path fill="none" stroke="#000000" stroke-miterlimit="10" d="M657-0.1H0v-16.7c0-5.7,4.6-10.3,10.3-10.3h636.5
			c5.7,0,10.3,4.6,10.3,10.3V-0.1z"/>
		<circle cx="13.5" cy="-13.6" r="4.5"/>
		<circle cx="31.5" cy="-13.6" r="4.5"/>
		<circle cx="49.5" cy="-13.6" r="4.5"/>
	</g>
</g>
<g id="Time">
	
		<line fill="none" stroke="#6B7780" stroke-width="0.5" stroke-miterlimit="10" stroke-dasharray="1,2" x1="193.6" y1="251.9" x2="499.5" y2="199"/>
	
		<line fill="none" stroke="#6B7780" stroke-width="0.5" stroke-miterlimit="10" stroke-dasharray="1,2" x1="500.1" y1="199" x2="656.3" y2="171.9"/>
	<path fill="none" stroke="#6B7780" stroke-width="0.5" stroke-miterlimit="10" d="M504,251.9c0-18.5-1.6-36.6-4.7-54.2"/>
	
		<line fill="none" stroke="#6B7780" stroke-width="0.5" stroke-miterlimit="10" stroke-dasharray="1,2" x1="0" y1="251.9" x2="657" y2="251.9"/>
	<text transform="matrix(1 0 0 1 4.3333 440.5645)" opacity="0.39"><tspan x="0" y="0" fill="#3B4375" font-family="'Montserrat-Regular'" font-size="10">Kyle Reese</tspan><tspan x="55.3" y="0" font-family="'Montserrat-Regular'" font-size="10"> and </tspan><tspan x="79.8" y="0" fill="#DA2C27" font-family="'Montserrat-Regular'" font-size="10">T800 (1)</tspan><tspan x="119.2" y="0" font-family="'Montserrat-Regular'" font-size="10"> are sent to 1984, both die.</tspan><tspan x="0" y="12" fill="#E81856" font-family="'Montserrat-Regular'" font-size="10">John Conner</tspan><tspan x="64.6" y="12" font-family="'Montserrat-Regular'" font-size="10"> is born in 1984 and never goes back in time. His timeline branching in 1995. </tspan><tspan x="0" y="24" fill="#558DCA" font-family="'Montserrat-Regular'" font-size="10">T800 (2)</tspan><tspan x="41.4" y="24" font-family="'Montserrat-Regular'" font-size="10"> and </tspan><tspan x="66" y="24" fill="#75A841" font-family="'Montserrat-Regular'" font-size="10">T1000</tspan><tspan x="96.4" y="24" font-family="'Montserrat-Regular'" font-size="10"> is sent back to 1995, both die, brancing the timeline.</tspan><tspan x="0" y="36" fill="#CB7084" font-family="'Montserrat-Regular'" font-size="10">T-X</tspan><tspan x="17.5" y="36" font-family="'Montserrat-Regular'" font-size="10"> and </tspan><tspan x="42.1" y="36" fill="#9391A5" font-family="'Montserrat-Regular'" font-size="10">T850</tspan><tspan x="67.1" y="36" font-family="'Montserrat-Regular'" font-size="10"> are sent to 2004 of the branched timeine. Both die.</tspan></text>
	<linearGradient id="SVGID_1_" gradientUnits="userSpaceOnUse" x1="193.5002" y1="238.3979" x2="504" y2="238.3979">
		<stop  offset="0.25" style="stop-color:#BD812B"/>
		<stop  offset="0.75" style="stop-color:#BD812B"/>
		<stop  offset="1" style="stop-color:#BD812B;stop-opacity:0"/>
	</linearGradient>
	<line fill="none" stroke="url(#SVGID_1_)" stroke-miterlimit="10" x1="193.5" y1="238.4" x2="504" y2="238.4"/>
	
		<linearGradient id="SVGID_2_" gradientUnits="userSpaceOnUse" x1="193.5002" y1="238.3979" x2="504" y2="238.3979" gradientTransform="matrix(0.9848 -0.1736 0.1736 0.9848 -38.4576 37.2227)">
		<stop  offset="0.25" style="stop-color:#BD812B"/>
		<stop  offset="0.75" style="stop-color:#BD812B"/>
		<stop  offset="1" style="stop-color:#BD812B;stop-opacity:0"/>
	</linearGradient>
	<line fill="none" stroke="url(#SVGID_2_)" stroke-miterlimit="10" x1="193.5" y1="238.4" x2="499.3" y2="184.5"/>
	<linearGradient id="SVGID_3_" gradientUnits="userSpaceOnUse" x1="4.5" y1="238.3979" x2="193.5002" y2="238.3979">
		<stop  offset="0" style="stop-color:#BD812B;stop-opacity:0"/>
		<stop  offset="0.9847" style="stop-color:#BD812B"/>
	</linearGradient>
	<linearGradient id="SVGID_4_" gradientUnits="userSpaceOnUse" x1="4.5" y1="238.3979" x2="193.5002" y2="238.3979">
		<stop  offset="0" style="stop-color:#BD812B;stop-opacity:0"/>
		<stop  offset="0.25" style="stop-color:#BD812B"/>
		<stop  offset="0.75" style="stop-color:#BD812B"/>
	</linearGradient>
	<line fill="url(#SVGID_3_)" stroke="url(#SVGID_4_)" stroke-miterlimit="10" x1="4.5" y1="238.4" x2="193.5" y2="238.4"/>
	<text transform="matrix(1 0 0 1 1.3133 256.0856)" fill="#6B7780" font-family="'Montserrat-Regular'" font-size="4">Time</text>
</g>
<g id="Characters">
	<g>
		<polyline fill="none" stroke="#E81856" stroke-miterlimit="10" points="108,251.9 117,242.9 193.5,242.9 		"/>
		<line fill="none" stroke="#E81856" stroke-miterlimit="10" x1="193.5" y1="242.9" x2="499.3" y2="189"/>
		<line fill="none" stroke="#E81856" stroke-miterlimit="10" x1="193.5" y1="242.9" x2="504" y2="242.9"/>
		<linearGradient id="SVGID_5_" gradientUnits="userSpaceOnUse" x1="504" y1="242.8979" x2="648" y2="242.8979">
			<stop  offset="0" style="stop-color:#E81856"/>
			<stop  offset="1" style="stop-color:#E81856;stop-opacity:0"/>
		</linearGradient>
		<line fill="none" stroke="url(#SVGID_5_)" stroke-miterlimit="10" x1="504" y1="242.9" x2="648" y2="242.9"/>
		
			<linearGradient id="SVGID_6_" gradientUnits="userSpaceOnUse" x1="504" y1="242.8979" x2="648" y2="242.8979" gradientTransform="matrix(0.9848 -0.1736 0.1736 0.9848 -39.2391 37.2911)">
			<stop  offset="0" style="stop-color:#E81856"/>
			<stop  offset="1" style="stop-color:#E81856;stop-opacity:0"/>
		</linearGradient>
		<line fill="none" stroke="url(#SVGID_6_)" stroke-miterlimit="10" x1="499.3" y1="189" x2="641.1" y2="164"/>
	</g>
	<text transform="matrix(1 0 0 1 473.7695 250.586)" font-family="'Montserrat-Regular'" font-size="4">Kyle Reese</text>
	<text transform="matrix(1 0 0 1 117.5727 247.3976)" fill="#E81856" font-family="'Montserrat-Regular'" font-size="4">John Conner</text>
	<text transform="matrix(1 0 0 1 49.3681 242.8976)" fill="#BD812B" font-family="'Montserrat-Regular'" font-size="4">Sarah Conner</text>
	<text transform="matrix(0.9848 -0.1736 0.1736 0.9848 470.1522 201.8685)" font-family="'Montserrat-Regular'" font-size="4">Kyle Reese</text>
	<linearGradient id="SVGID_7_" gradientUnits="userSpaceOnUse" x1="252" y1="249.2514" x2="504.3544" y2="249.2514">
		<stop  offset="0" style="stop-color:#333366;stop-opacity:0"/>
		<stop  offset="1" style="stop-color:#333366"/>
	</linearGradient>
	<polyline fill="none" stroke="url(#SVGID_7_)" stroke-miterlimit="10" points="504,251.6 499.5,247.1 252,247.1 	"/>
	
		<linearGradient id="SVGID_8_" gradientUnits="userSpaceOnUse" x1="252" y1="249.2514" x2="504.3544" y2="249.2514" gradientTransform="matrix(0.9848 -0.1736 0.1736 0.9848 -39.9663 37.3547)">
		<stop  offset="0" style="stop-color:#333366;stop-opacity:0"/>
		<stop  offset="1" style="stop-color:#333366"/>
	</linearGradient>
	<polyline fill="none" stroke="url(#SVGID_8_)" stroke-miterlimit="10" points="500.1,197.6 494.8,193.9 251.1,236.9 	"/>
	<path fill="none" stroke="#6B7780" stroke-miterlimit="10" d="M220.1,238.2c0.3,1.5,0.4,3.1,0.4,4.7c0,1.6-0.1,3.2-0.4,4.7"/>
	<path id="SVGID_x5F_9_x5F_" fill="none" d="M168.4,253.9c5.2,11.8,18.3,18.5,31.2,15.2c14.5-3.6,23.3-18.2,19.7-32.7
		c-3.6-14.5-18.2-23.3-32.7-19.7c-12.9,3.2-21.3,15.2-20.4,28.1"/>
	<text>	<textPath  xlink:href="#SVGID_x5F_9_x5F_" startOffset="30.889%">
<tspan  fill="#6B7780" font-family="'Montserrat-Regular'" font-size="4">Judgement Day Mark I</tspan>	</textPath>
</text>
	<line fill="none" stroke="#6B7780" stroke-width="0.5" stroke-miterlimit="10" x1="193.5" y1="242.9" x2="193.5" y2="242.9"/>
	<line fill="none" stroke="#6B7780" stroke-width="0.5" stroke-miterlimit="10" x1="193.5" y1="242.9" x2="193.5" y2="242.9"/>
	<path id="SVGID_x5F_10_x5F_" fill="none" d="M126,286.2c17.7,28,51.5,43.3,85.7,35.9c43.7-9.5,71.4-52.7,61.9-96.4
		s-52.7-71.4-96.4-61.9c-43.7,9.5-71.4,52.7-61.9,96.4"/>
	<text>	<textPath  xlink:href="#SVGID_x5F_10_x5F_" startOffset="11.5073%">
<tspan  fill="#6B7780" font-family="'Montserrat-Regular'" font-size="4">Judgement Day Mark II</tspan>	</textPath>
</text>
	<path fill="none" stroke="#6B7780" stroke-miterlimit="10" d="M269.6,215.2c3.1,8.6,4.9,18,4.9,27.7v0"/>
	<g>
		<g>
			<g>
				<linearGradient id="SVGID_11_" gradientUnits="userSpaceOnUse" x1="99.9367" y1="269.2878" x2="500.0082" y2="269.2878">
					<stop  offset="0" style="stop-color:#333366;stop-opacity:0"/>
					<stop  offset="0.9459" style="stop-color:#333366;stop-opacity:0.9459"/>
					<stop  offset="1" style="stop-color:#333366"/>
				</linearGradient>
				<path fill="none" stroke="url(#SVGID_11_)" stroke-linecap="round" stroke-miterlimit="10" d="M100.4,268.3
					c0.1,0.7,0.3,1.3,0.5,1.9"/>
				<linearGradient id="SVGID_12_" gradientUnits="userSpaceOnUse" x1="99.9367" y1="249.4412" x2="500.0082" y2="249.4412">
					<stop  offset="0" style="stop-color:#333366;stop-opacity:0"/>
					<stop  offset="0.9459" style="stop-color:#333366;stop-opacity:0.9459"/>
					<stop  offset="1" style="stop-color:#333366"/>
				</linearGradient>
				
					<path fill="none" stroke="url(#SVGID_12_)" stroke-linecap="round" stroke-miterlimit="10" stroke-dasharray="3.9767,3.9767" d="
					M102.6,273.8c15.4,24.8,103.8,30.6,206.6,12.5c105.2-18.6,187.6-55.5,190.2-84.4"/>
				<linearGradient id="SVGID_13_" gradientUnits="userSpaceOnUse" x1="99.9367" y1="198.9838" x2="500.0082" y2="198.9838">
					<stop  offset="0" style="stop-color:#333366;stop-opacity:0"/>
					<stop  offset="0.9459" style="stop-color:#333366;stop-opacity:0.9459"/>
					<stop  offset="1" style="stop-color:#333366"/>
				</linearGradient>
				<path fill="none" stroke="url(#SVGID_13_)" stroke-linecap="round" stroke-miterlimit="10" d="M499.5,200c0-0.7-0.1-1.3-0.2-2"
					/>
			</g>
		</g>
	</g>
</g>
<g id="Terminator_3">
	
		<rect x="384.1" y="390.3" transform="matrix(-0.9848 0.1736 -0.1736 -0.9848 902.4899 715.1213)" fill="#9391A5" width="71.6" height="13.5"/>
	<path fill="none" stroke="#CB7084" stroke-miterlimit="10" d="M499.2,197.7c14.7,83.4-24,159.9-86.4,170.9
		c-62.4,11-124.9-47.7-139.6-131.1"/>
	<path fill="none" stroke="#9391A5" stroke-miterlimit="10" d="M499.2,197.7c17.7,100.5-18.5,190.9-80.9,201.9
		c-62.4,11-127.4-61.6-145.1-162.1"/>
	
		<rect x="374.6" y="360" transform="matrix(-0.9848 0.1736 -0.1736 -0.9848 878.2814 656.6337)" fill="#CB7084" width="71.6" height="13.5"/>
	
		<text transform="matrix(1.0622 -0.1873 0.1736 0.9848 403.2157 370.3007)" fill="#FFFFFF" font-family="'Montserrat-Regular'" font-size="8">T-X</text>
	<circle fill="#FFFFFF" stroke="#9391A5" stroke-miterlimit="10" cx="499.5" cy="197.9" r="4.7"/>
	
		<text transform="matrix(1.0622 -0.1873 0.1736 0.9848 409.6111 401.1522)" fill="#FFFFFF" font-family="'Montserrat-Regular'" font-size="8">T850</text>
	<g>
		<line fill="none" stroke="#9391A5" stroke-miterlimit="10" x1="274.4" y1="238.5" x2="285.4" y2="230.5"/>
		<circle fill="#FFFFFF" stroke="#9391A5" stroke-miterlimit="10" cx="285.5" cy="230.9" r="4.5"/>
		<g>
			<path fill="#9391A5" d="M287,229.6c-0.1,0.1-0.1,0.3,0,0.4c0.1,0.2,0.2,0.4,0.2,0.7c0,0.2,0.1,0.3,0.3,0.4c0,0,0,0.1,0,0.1
				c-0.1,0.1-0.1,0.2-0.2,0.3c-0.1,0.2-0.3,0.2-0.5,0.2c-0.2,0-0.3,0-0.3,0.2c0,0,0,0.1,0,0.2c-0.1,0-0.3,0.1-0.4,0.1
				c-0.2,0-0.5,0.1-0.7,0.1c-0.1,0-0.3,0-0.4-0.1c0,0,0,0,0-0.1c0-0.1,0-0.2-0.1-0.2c0-0.1-0.1-0.1-0.2-0.1
				c-0.3,0.2-0.5,0.1-0.7-0.2c-0.1-0.1-0.1-0.2,0-0.3c0.1-0.1,0.1-0.3,0.1-0.5c0-0.2,0-0.4,0.1-0.6c0-0.2,0-0.3-0.1-0.4
				c0,0,0,0.1,0,0.1c0.1,0.1,0.1,0.2,0,0.3c-0.1,0.2-0.2,0.4-0.1,0.7c0,0.1,0,0.2-0.2,0.3c0-0.1-0.1-0.2-0.1-0.2
				c-0.1-0.3-0.1-0.6-0.1-1c0-0.2,0.1-0.5,0.1-0.7c0.1-0.3,0.2-0.5,0.4-0.6c0.2-0.1,0.3-0.3,0.5-0.4c0.1-0.1,0.3-0.1,0.4-0.1
				c0.2,0,0.3-0.1,0.5-0.1c0.3,0,0.5,0,0.8,0.1c0.2,0.1,0.5,0.2,0.7,0.4c0.2,0.2,0.4,0.5,0.5,0.8c0.1,0.2,0.1,0.5,0.1,0.7
				c0,0.3,0,0.5-0.1,0.8c-0.1,0-0.2-0.1-0.2-0.2c0-0.3-0.1-0.5-0.3-0.7C287,229.9,286.9,229.8,287,229.6
				C287,229.7,287,229.7,287,229.6C287,229.6,287,229.6,287,229.6z M284.7,231.3c0.1-0.1,0.2-0.1,0.3-0.2c0.1-0.1,0.2-0.1,0.2-0.3
				c0-0.1,0-0.2,0-0.2c0-0.1-0.1-0.2-0.1-0.3c0,0,0,0-0.1-0.1c-0.2-0.1-0.4,0-0.6,0.1c-0.2,0.1-0.3,0.4-0.2,0.6
				C284.4,231.1,284.5,231.3,284.7,231.3z M287,230.6c0-0.2-0.1-0.3-0.3-0.4c-0.1,0-0.3-0.1-0.4-0.1c-0.1,0-0.2,0-0.2,0.2
				c0,0.1-0.1,0.3-0.1,0.4c0,0.1,0,0.2,0.1,0.2c0.1,0.1,0.3,0.2,0.5,0.2c0.1,0,0.1,0,0.2,0C287,231,287,230.8,287,230.6z
				 M285.8,231.7c0.2,0,0.3,0,0.3-0.1c0-0.1,0-0.1,0-0.2c-0.1-0.2-0.2-0.4-0.3-0.6c0,0,0,0-0.1,0
				C285.7,231.1,285.8,231.4,285.8,231.7z M285.6,230.8C285.5,230.8,285.5,230.8,285.6,230.8c-0.2,0.3-0.2,0.5-0.3,0.7
				c0,0,0,0.1,0,0.1c0.1,0.1,0.1,0.1,0.3,0.1C285.6,231.4,285.6,231.1,285.6,230.8z"/>
			<path fill="#9391A5" d="M287.4,231.5c0,0.2-0.1,0.3-0.2,0.5c-0.1,0.1-0.1,0.1-0.1,0.2c0,0.1,0,0.2,0,0.3c0,0.3-0.1,0.5-0.3,0.7
				c-0.2,0.1-0.3,0.2-0.5,0.3c-0.1,0.1-0.2,0.1-0.3,0.1c-0.1,0-0.2,0-0.4,0c-0.1,0-0.2,0-0.3,0c-0.3-0.1-0.5-0.3-0.8-0.4
				c-0.1-0.1-0.1-0.2-0.2-0.3c0-0.2,0-0.3,0-0.5c0-0.1-0.1-0.2-0.1-0.2c-0.1-0.1-0.2-0.2-0.3-0.4c0,0,0-0.1,0-0.1
				c0.1,0.1,0.2,0.2,0.4,0.2c0.1,0,0.2,0,0.3,0.1c0.1,0.1,0.2,0.2,0.2,0.3c0,0.1,0.1,0.2,0.2,0.2c0.1,0.1,0.3,0.1,0.4,0.1
				c0.2,0.1,0.4,0,0.6,0c0.2,0,0.4-0.1,0.6-0.3c0,0,0.1-0.1,0.1-0.1c0-0.2,0.1-0.4,0.2-0.5c0,0,0,0,0.1,0
				C287.2,231.7,287.3,231.7,287.4,231.5z"/>
		</g>
	</g>
	<g>
		<line fill="none" stroke="#CB7084" stroke-miterlimit="10" x1="274.4" y1="238.5" x2="274.4" y2="225"/>
		<circle fill="#FFFFFF" stroke="#CB7084" stroke-miterlimit="10" cx="274.4" cy="225" r="4.5"/>
		<g>
			<path fill="#CB7084" d="M275.8,223.8c-0.1,0.1-0.1,0.3-0.1,0.4c0.1,0.2,0.2,0.4,0.2,0.7c0,0.2,0.1,0.3,0.2,0.4c0,0,0,0.1,0,0.1
				c-0.1,0.1-0.1,0.2-0.2,0.3c-0.1,0.2-0.3,0.1-0.5,0.1c-0.2,0-0.3,0-0.3,0.2c0,0,0,0.1,0,0.2c-0.2,0-0.3,0.1-0.5,0.1
				c-0.2,0-0.5,0-0.7,0c-0.1,0-0.3-0.1-0.4-0.1c0,0,0,0,0-0.1c0-0.1,0-0.2,0-0.2c0-0.1-0.1-0.1-0.2-0.1c-0.3,0.1-0.5,0-0.7-0.3
				c-0.1-0.1-0.1-0.2,0-0.3c0.1-0.1,0.1-0.3,0.1-0.5c0-0.2,0.1-0.4,0.1-0.5c0.1-0.2,0-0.3-0.1-0.4c0,0,0,0.1,0,0.1
				c0.1,0.1,0.1,0.2,0,0.3c-0.1,0.2-0.2,0.4-0.2,0.7c0,0.1-0.1,0.2-0.2,0.3c0-0.1-0.1-0.2-0.1-0.3c-0.1-0.3-0.1-0.6,0-1
				c0-0.2,0.1-0.4,0.2-0.7c0.1-0.3,0.3-0.5,0.5-0.6c0.2-0.1,0.4-0.2,0.6-0.3c0.1-0.1,0.3-0.1,0.4-0.1c0.2,0,0.3,0,0.5,0
				c0.3,0,0.5,0.1,0.8,0.2c0.2,0.1,0.5,0.3,0.6,0.4c0.2,0.2,0.4,0.5,0.4,0.8c0,0.2,0.1,0.5,0.1,0.7c0,0.3,0,0.5-0.1,0.8
				c-0.1,0-0.2-0.1-0.2-0.2c0-0.3-0.1-0.5-0.2-0.7C275.8,224.1,275.7,224,275.8,223.8C275.8,223.9,275.8,223.9,275.8,223.8
				C275.8,223.9,275.8,223.8,275.8,223.8z M273.4,225.3c0.1,0,0.2-0.1,0.3-0.1c0.1-0.1,0.2-0.1,0.2-0.3c0-0.1,0-0.2,0-0.2
				c0-0.1-0.1-0.2-0.1-0.3c0,0,0-0.1-0.1-0.1c-0.2-0.1-0.4,0-0.6,0.1c-0.2,0.1-0.3,0.4-0.2,0.6C273.1,225.1,273.2,225.3,273.4,225.3
				z M275.7,224.8c0-0.2-0.1-0.3-0.2-0.4c-0.1-0.1-0.3-0.1-0.4-0.1c-0.1,0-0.2,0-0.3,0.1c0,0.1-0.1,0.3-0.1,0.4c0,0.1,0,0.2,0.1,0.2
				c0.1,0.1,0.3,0.2,0.5,0.2c0.1,0,0.1,0,0.2,0C275.7,225.2,275.7,225,275.7,224.8z M274.4,225.8c0.2,0,0.3,0,0.3-0.1
				c0-0.1,0-0.1,0-0.2c-0.1-0.2-0.1-0.4-0.2-0.6c0,0,0,0-0.1,0C274.4,225.2,274.4,225.5,274.4,225.8z M274.3,224.9
				C274.2,224.9,274.2,224.9,274.3,224.9c-0.2,0.3-0.3,0.5-0.3,0.7c0,0,0,0.1,0,0.1c0.1,0.1,0.1,0.1,0.3,0.1
				C274.3,225.5,274.3,225.2,274.3,224.9z"/>
			<path fill="#CB7084" d="M276.1,225.7c0,0.2-0.1,0.3-0.2,0.4c-0.1,0.1-0.1,0.1-0.1,0.2c0,0.1,0,0.2,0,0.3c0,0.3-0.1,0.5-0.4,0.6
				c-0.2,0.1-0.3,0.2-0.5,0.3c-0.1,0.1-0.2,0.1-0.4,0c-0.1,0-0.2,0-0.4,0c-0.1,0-0.2,0-0.3,0c-0.3-0.1-0.5-0.3-0.7-0.5
				c-0.1-0.1-0.1-0.2-0.1-0.3c0-0.2,0-0.3,0-0.5c0-0.1,0-0.2-0.1-0.2c-0.1-0.1-0.2-0.3-0.2-0.4c0,0,0-0.1,0-0.1
				c0.1,0.2,0.2,0.2,0.4,0.2c0.1,0,0.2,0,0.2,0.1c0.1,0.1,0.2,0.2,0.1,0.4c0,0.1,0.1,0.2,0.2,0.2c0.1,0.1,0.3,0.1,0.4,0.1
				c0.2,0.1,0.4,0.1,0.6,0c0.2,0,0.5-0.1,0.6-0.2c0,0,0.1-0.1,0.1-0.1c0-0.2,0.1-0.4,0.3-0.5c0,0,0,0,0.1,0
				C275.8,225.9,275.9,225.9,276.1,225.7z"/>
		</g>
	</g>
	<circle fill="#FFFFFF" stroke="#9391A5" stroke-miterlimit="10" cx="273.3" cy="237.8" r="4.7"/>
</g>
<g id="Terminator_2">
	<g>
		<line fill="#FFFFFF" stroke="#558DCA" stroke-miterlimit="10" x1="193.6" y1="251.9" x2="204.6" y2="243.9"/>
		<circle fill="#FFFFFF" stroke="#558DCA" stroke-miterlimit="10" cx="204.7" cy="244.3" r="4.5"/>
		<g>
			<path fill="#558DCA" d="M206.2,243c-0.1,0.1-0.1,0.3,0,0.4c0.1,0.2,0.2,0.4,0.2,0.7c0,0.2,0.1,0.3,0.3,0.4c0,0,0,0.1,0,0.1
				c-0.1,0.1-0.1,0.2-0.2,0.3c-0.1,0.2-0.3,0.2-0.5,0.2c-0.2,0-0.3,0-0.3,0.2c0,0,0,0.1,0,0.2c-0.1,0-0.3,0.1-0.4,0.1
				c-0.2,0-0.5,0.1-0.7,0.1c-0.1,0-0.3,0-0.4-0.1c0,0,0,0,0-0.1c0-0.1,0-0.2-0.1-0.2c0-0.1-0.1-0.1-0.2-0.1
				c-0.3,0.2-0.5,0.1-0.7-0.2c-0.1-0.1-0.1-0.2,0-0.3c0.1-0.1,0.1-0.3,0.1-0.5c0-0.2,0-0.4,0.1-0.6c0-0.2,0-0.3-0.1-0.4
				c0,0,0,0.1,0,0.1c0.1,0.1,0.1,0.2,0,0.3c-0.1,0.2-0.2,0.4-0.1,0.7c0,0.1,0,0.2-0.2,0.3c0-0.1-0.1-0.2-0.1-0.2
				c-0.1-0.3-0.1-0.6-0.1-1c0-0.2,0.1-0.5,0.1-0.7c0.1-0.3,0.2-0.5,0.4-0.6c0.2-0.1,0.3-0.3,0.5-0.4c0.1-0.1,0.3-0.1,0.4-0.1
				c0.2,0,0.3-0.1,0.5-0.1c0.3,0,0.5,0,0.8,0.1c0.2,0.1,0.5,0.2,0.7,0.4c0.2,0.2,0.4,0.5,0.5,0.8c0.1,0.2,0.1,0.5,0.1,0.7
				c0,0.3,0,0.5-0.1,0.8c-0.1,0-0.2-0.1-0.2-0.2c0-0.3-0.1-0.5-0.3-0.7C206.2,243.3,206.1,243.2,206.2,243
				C206.2,243.1,206.2,243.1,206.2,243C206.2,243.1,206.2,243.1,206.2,243z M203.9,244.7c0.1-0.1,0.2-0.1,0.3-0.2
				c0.1-0.1,0.2-0.1,0.2-0.3c0-0.1,0-0.2,0-0.2c0-0.1-0.1-0.2-0.1-0.3c0,0,0,0-0.1-0.1c-0.2-0.1-0.4,0-0.6,0.1
				c-0.2,0.1-0.3,0.4-0.2,0.6C203.6,244.6,203.7,244.7,203.9,244.7z M206.2,244c0-0.2-0.1-0.3-0.3-0.4c-0.1,0-0.3-0.1-0.4-0.1
				c-0.1,0-0.2,0-0.2,0.2c0,0.1-0.1,0.3-0.1,0.4c0,0.1,0,0.2,0.1,0.2c0.1,0.1,0.3,0.2,0.5,0.2c0.1,0,0.1,0,0.2,0
				C206.2,244.4,206.2,244.2,206.2,244z M205,245.1c0.2,0,0.3,0,0.3-0.1c0-0.1,0-0.1,0-0.2c-0.1-0.2-0.2-0.4-0.3-0.6c0,0,0,0-0.1,0
				C204.9,244.5,205,244.8,205,245.1z M204.8,244.2C204.8,244.2,204.7,244.2,204.8,244.2c-0.2,0.3-0.2,0.5-0.3,0.7c0,0,0,0.1,0,0.1
				c0.1,0.1,0.1,0.1,0.3,0.1C204.8,244.8,204.8,244.5,204.8,244.2z"/>
			<path fill="#558DCA" d="M206.6,244.9c0,0.2-0.1,0.3-0.2,0.5c-0.1,0.1-0.1,0.1-0.1,0.2c0,0.1,0,0.2,0,0.3c0,0.3-0.1,0.5-0.3,0.7
				c-0.2,0.1-0.3,0.2-0.5,0.3c-0.1,0.1-0.2,0.1-0.3,0.1c-0.1,0-0.2,0-0.4,0c-0.1,0-0.2,0-0.3,0c-0.3-0.1-0.5-0.3-0.8-0.4
				c-0.1-0.1-0.1-0.2-0.2-0.3c0-0.2,0-0.3,0-0.5c0-0.1-0.1-0.2-0.1-0.2c-0.1-0.1-0.2-0.2-0.3-0.4c0,0,0-0.1,0-0.1
				c0.1,0.1,0.2,0.2,0.4,0.2c0.1,0,0.2,0,0.3,0.1c0.1,0.1,0.2,0.2,0.2,0.3c0,0.1,0.1,0.2,0.2,0.2c0.1,0.1,0.3,0.1,0.4,0.1
				c0.2,0.1,0.4,0,0.6,0c0.2,0,0.4-0.1,0.6-0.3c0,0,0.1-0.1,0.1-0.1c0-0.2,0.1-0.4,0.2-0.5c0,0,0,0,0.1,0
				C206.4,245.1,206.5,245.1,206.6,244.9z"/>
		</g>
	</g>
	<line fill="none" stroke="#75A841" stroke-miterlimit="10" x1="193.6" y1="251.9" x2="193.6" y2="238.4"/>
	<g>
		<circle fill="#FFFFFF" stroke="#75A841" stroke-miterlimit="10" cx="193.6" cy="238.4" r="4.5"/>
		<g>
			<path fill="#75A841" d="M195,237.2c-0.1,0.1-0.1,0.3-0.1,0.4c0.1,0.2,0.2,0.4,0.2,0.7c0,0.2,0.1,0.3,0.2,0.4c0,0,0,0.1,0,0.1
				c-0.1,0.1-0.1,0.2-0.2,0.3c-0.1,0.2-0.3,0.1-0.5,0.1c-0.2,0-0.3,0-0.3,0.2c0,0,0,0.1,0,0.2c-0.2,0-0.3,0.1-0.5,0.1
				c-0.2,0-0.5,0-0.7,0c-0.1,0-0.3-0.1-0.4-0.1c0,0,0,0,0-0.1c0-0.1,0-0.2,0-0.2c0-0.1-0.1-0.1-0.2-0.1c-0.3,0.1-0.5,0-0.7-0.3
				c-0.1-0.1-0.1-0.2,0-0.3c0.1-0.1,0.1-0.3,0.1-0.5c0-0.2,0.1-0.4,0.1-0.5c0.1-0.2,0-0.3-0.1-0.4c0,0,0,0.1,0,0.1
				c0.1,0.1,0.1,0.2,0,0.3c-0.1,0.2-0.2,0.4-0.2,0.7c0,0.1-0.1,0.2-0.2,0.3c0-0.1-0.1-0.2-0.1-0.3c-0.1-0.3-0.1-0.6,0-1
				c0-0.2,0.1-0.4,0.2-0.7c0.1-0.3,0.3-0.5,0.5-0.6c0.2-0.1,0.4-0.2,0.6-0.3c0.1-0.1,0.3-0.1,0.4-0.1c0.2,0,0.3,0,0.5,0
				c0.3,0,0.5,0.1,0.8,0.2c0.2,0.1,0.5,0.3,0.6,0.4c0.2,0.2,0.4,0.5,0.4,0.8c0,0.2,0.1,0.5,0.1,0.7c0,0.3,0,0.5-0.1,0.8
				c-0.1,0-0.2-0.1-0.2-0.2c0-0.3-0.1-0.5-0.2-0.7C195,237.5,194.9,237.4,195,237.2C195,237.3,195,237.3,195,237.2
				C195,237.3,195,237.3,195,237.2z M192.6,238.7c0.1,0,0.2-0.1,0.3-0.1c0.1-0.1,0.2-0.1,0.2-0.3c0-0.1,0-0.2,0-0.2
				c0-0.1-0.1-0.2-0.1-0.3c0,0,0-0.1-0.1-0.1c-0.2-0.1-0.4,0-0.6,0.1c-0.2,0.1-0.3,0.4-0.2,0.6C192.3,238.5,192.4,238.7,192.6,238.7
				z M194.9,238.2c0-0.2-0.1-0.3-0.2-0.4c-0.1-0.1-0.3-0.1-0.4-0.1c-0.1,0-0.2,0-0.3,0.1c0,0.1-0.1,0.3-0.1,0.4c0,0.1,0,0.2,0.1,0.2
				c0.1,0.1,0.3,0.2,0.5,0.2c0.1,0,0.1,0,0.2,0C194.9,238.6,195,238.4,194.9,238.2z M193.6,239.2c0.2,0,0.3,0,0.3-0.1
				c0-0.1,0-0.1,0-0.2c-0.1-0.2-0.1-0.4-0.2-0.6c0,0,0,0-0.1,0C193.6,238.6,193.6,238.9,193.6,239.2z M193.5,238.3
				C193.5,238.3,193.4,238.3,193.5,238.3c-0.2,0.3-0.3,0.5-0.3,0.7c0,0,0,0.1,0,0.1c0.1,0.1,0.1,0.1,0.3,0.1
				C193.5,238.9,193.5,238.6,193.5,238.3z"/>
			<path fill="#75A841" d="M195.3,239.2c0,0.2-0.1,0.3-0.2,0.4c-0.1,0.1-0.1,0.1-0.1,0.2c0,0.1,0,0.2,0,0.3c0,0.3-0.1,0.5-0.4,0.6
				c-0.2,0.1-0.3,0.2-0.5,0.3c-0.1,0.1-0.2,0.1-0.4,0c-0.1,0-0.2,0-0.4,0c-0.1,0-0.2,0-0.3,0c-0.3-0.1-0.5-0.3-0.7-0.5
				c-0.1-0.1-0.1-0.2-0.1-0.3c0-0.2,0-0.3,0-0.5c0-0.1,0-0.2-0.1-0.2c-0.1-0.1-0.2-0.3-0.2-0.4c0,0,0-0.1,0-0.1
				c0.1,0.2,0.2,0.2,0.4,0.2c0.1,0,0.2,0,0.2,0.1c0.1,0.1,0.2,0.2,0.1,0.4c0,0.1,0.1,0.2,0.2,0.2c0.1,0.1,0.3,0.1,0.4,0.1
				c0.2,0.1,0.4,0.1,0.6,0c0.2,0,0.5-0.1,0.6-0.2c0,0,0.1-0.1,0.1-0.1c0-0.2,0.1-0.4,0.3-0.5c0,0,0,0,0.1,0
				C195,239.4,195.2,239.3,195.3,239.2z"/>
		</g>
	</g>
	<path fill="none" stroke="#75A841" stroke-miterlimit="10" d="M504,251.6c0,49.9-69.5,90.3-155.2,90.3s-155.2-40.4-155.2-90.3"/>
	<path fill="none" stroke="#558DCA" stroke-miterlimit="10" d="M504,251.6c0,62.8-69.5,113.6-155.2,113.6s-155.2-50.9-155.2-113.6"
		/>
	<rect x="308.2" y="335.1" fill="#75A841" width="71.6" height="13.5"/>
	<text transform="matrix(1.0785 0 0 1 330.68 344.1479)" fill="#FFFFFF" font-family="'Montserrat-Regular'" font-size="8">T1000</text>
	<rect x="308.2" y="358.5" fill="#558DCA" width="71.6" height="13.5"/>
	<text transform="matrix(1.0785 0 0 1 325.9608 367.4812)" fill="#FFFFFF" font-family="'Montserrat-Regular'" font-size="8">T800 (2)</text>
	<circle fill="#FFFFFF" stroke="#558DCA" stroke-miterlimit="10" cx="193.5" cy="251.6" r="4.5"/>
</g>
<g id="Terminator_1">
	<rect x="9" y="8.9" fill="#DA2C27" width="180" height="27"/>
	<text transform="matrix(1 0 0 1 18 26.8979)" fill="#FFFFFF" font-family="'Montserrat-Regular'" font-size="12">Terminators</text>
	<path fill="none" stroke="#DA2C27" stroke-miterlimit="10" d="M500.1,254.2c0.1,0.2,0.3,0.4,0.4,0.6"/>
	<path fill="none" stroke="#DA2C27" stroke-miterlimit="10" d="M102.8,254.4c0,0.1-0.1,0.1-0.2,0.2"/>
	<rect x="265.9" y="298.9" fill="#3B4375" width="71.6" height="13.5"/>
	<line fill="none" stroke="#3B4375" stroke-miterlimit="10" x1="99" y1="251.9" x2="110" y2="243.9"/>
	<g>
		<circle fill="#FFFFFF" stroke="#3B4375" stroke-miterlimit="10" cx="110.2" cy="244.3" r="4.5"/>
		<g>
			<path fill="#3B4375" d="M111.6,243c-0.1,0.1-0.1,0.3,0,0.4c0.1,0.2,0.2,0.4,0.2,0.7c0,0.2,0.1,0.3,0.3,0.4c0,0,0,0.1,0,0.1
				c-0.1,0.1-0.1,0.2-0.2,0.3c-0.1,0.2-0.3,0.2-0.5,0.2c-0.2,0-0.3,0-0.3,0.2c0,0,0,0.1,0,0.2c-0.1,0-0.3,0.1-0.4,0.1
				c-0.2,0-0.5,0.1-0.7,0.1c-0.1,0-0.3,0-0.4-0.1c0,0,0,0,0-0.1c0-0.1,0-0.2-0.1-0.2c0-0.1-0.1-0.1-0.2-0.1
				c-0.3,0.2-0.5,0.1-0.7-0.2c-0.1-0.1-0.1-0.2,0-0.3c0.1-0.1,0.1-0.3,0.1-0.5c0-0.2,0-0.4,0.1-0.6c0-0.2,0-0.3-0.1-0.4
				c0,0,0,0.1,0,0.1c0.1,0.1,0.1,0.2,0,0.3c-0.1,0.2-0.2,0.4-0.1,0.7c0,0.1,0,0.2-0.2,0.3c0-0.1-0.1-0.2-0.1-0.2
				c-0.1-0.3-0.1-0.6-0.1-1c0-0.2,0.1-0.5,0.1-0.7c0.1-0.3,0.2-0.5,0.4-0.6c0.2-0.1,0.3-0.3,0.5-0.4c0.1-0.1,0.3-0.1,0.4-0.1
				c0.2,0,0.3-0.1,0.5-0.1c0.3,0,0.5,0,0.8,0.1c0.2,0.1,0.5,0.2,0.7,0.4c0.2,0.2,0.4,0.5,0.5,0.8c0.1,0.2,0.1,0.5,0.1,0.7
				c0,0.3,0,0.5-0.1,0.8c-0.1,0-0.2-0.1-0.2-0.2c0-0.3-0.1-0.5-0.3-0.7C111.6,243.3,111.6,243.2,111.6,243
				C111.7,243.1,111.7,243.1,111.6,243C111.7,243.1,111.7,243.1,111.6,243z M109.3,244.7c0.1-0.1,0.2-0.1,0.3-0.2
				c0.1-0.1,0.2-0.1,0.2-0.3c0-0.1,0-0.2,0-0.2c0-0.1-0.1-0.2-0.1-0.3c0,0,0,0-0.1-0.1c-0.2-0.1-0.4,0-0.6,0.1
				c-0.2,0.1-0.3,0.4-0.2,0.6C109,244.6,109.2,244.7,109.3,244.7z M111.7,244c0-0.2-0.1-0.3-0.3-0.4c-0.1,0-0.3-0.1-0.4-0.1
				c-0.1,0-0.2,0-0.2,0.2c0,0.1-0.1,0.3-0.1,0.4c0,0.1,0,0.2,0.1,0.2c0.1,0.1,0.3,0.2,0.5,0.2c0.1,0,0.1,0,0.2,0
				C111.6,244.4,111.7,244.2,111.7,244z M110.4,245.1c0.2,0,0.3,0,0.3-0.1c0-0.1,0-0.1,0-0.2c-0.1-0.2-0.2-0.4-0.3-0.6
				c0,0,0,0-0.1,0C110.4,244.5,110.4,244.8,110.4,245.1z M110.2,244.2C110.2,244.2,110.2,244.2,110.2,244.2
				c-0.2,0.3-0.2,0.5-0.3,0.7c0,0,0,0.1,0,0.1c0.1,0.1,0.1,0.1,0.3,0.1C110.3,244.8,110.2,244.5,110.2,244.2z"/>
			<path fill="#3B4375" d="M112.1,244.9c0,0.2-0.1,0.3-0.2,0.5c-0.1,0.1-0.1,0.1-0.1,0.2c0,0.1,0,0.2,0,0.3c0,0.3-0.1,0.5-0.3,0.7
				c-0.2,0.1-0.3,0.2-0.5,0.3c-0.1,0.1-0.2,0.1-0.3,0.1c-0.1,0-0.2,0-0.4,0c-0.1,0-0.2,0-0.3,0c-0.3-0.1-0.5-0.3-0.8-0.4
				c-0.1-0.1-0.1-0.2-0.2-0.3c0-0.2,0-0.3,0-0.5c0-0.1-0.1-0.2-0.1-0.2c-0.1-0.1-0.2-0.2-0.3-0.4c0,0,0-0.1,0-0.1
				c0.1,0.1,0.2,0.2,0.4,0.2c0.1,0,0.2,0,0.3,0.1c0.1,0.1,0.2,0.2,0.2,0.3c0,0.1,0.1,0.2,0.2,0.2c0.1,0.1,0.3,0.1,0.4,0.1
				c0.2,0.1,0.4,0,0.6,0c0.2,0,0.4-0.1,0.6-0.3c0,0,0.1-0.1,0.1-0.1c0-0.2,0.1-0.4,0.2-0.5c0,0,0,0,0.1,0
				C111.8,245.1,112,245.1,112.1,244.9z"/>
		</g>
	</g>
	<line fill="none" stroke="#DA2C27" stroke-miterlimit="10" x1="99" y1="251.9" x2="99" y2="238.4"/>
	<g>
		<circle fill="#FFFFFF" stroke="#DA2C27" stroke-miterlimit="10" cx="99" cy="238.4" r="4.5"/>
		<g>
			<path fill="#DA2C27" d="M100.5,237.2c-0.1,0.1-0.1,0.3-0.1,0.4c0.1,0.2,0.2,0.4,0.2,0.7c0,0.2,0.1,0.3,0.2,0.4c0,0,0,0.1,0,0.1
				c-0.1,0.1-0.1,0.2-0.2,0.3c-0.1,0.2-0.3,0.1-0.5,0.1c-0.2,0-0.3,0-0.3,0.2c0,0,0,0.1,0,0.2c-0.2,0-0.3,0.1-0.5,0.1
				c-0.2,0-0.5,0-0.7,0c-0.1,0-0.3-0.1-0.4-0.1c0,0,0,0,0-0.1c0-0.1,0-0.2,0-0.2c0-0.1-0.1-0.1-0.2-0.1c-0.3,0.1-0.5,0-0.7-0.3
				c-0.1-0.1-0.1-0.2,0-0.3c0.1-0.1,0.1-0.3,0.1-0.5c0-0.2,0.1-0.4,0.1-0.5c0.1-0.2,0-0.3-0.1-0.4c0,0,0,0.1,0,0.1
				c0.1,0.1,0.1,0.2,0,0.3c-0.1,0.2-0.2,0.4-0.2,0.7c0,0.1-0.1,0.2-0.2,0.3c0-0.1-0.1-0.2-0.1-0.3c-0.1-0.3-0.1-0.6,0-1
				c0-0.2,0.1-0.4,0.2-0.7c0.1-0.3,0.3-0.5,0.5-0.6c0.2-0.1,0.4-0.2,0.6-0.3c0.1-0.1,0.3-0.1,0.4-0.1c0.2,0,0.3,0,0.5,0
				c0.3,0,0.5,0.1,0.8,0.2c0.2,0.1,0.5,0.3,0.6,0.4c0.2,0.2,0.4,0.5,0.4,0.8c0,0.2,0.1,0.5,0.1,0.7c0,0.3,0,0.5-0.1,0.8
				c-0.1,0-0.2-0.1-0.2-0.2c0-0.3-0.1-0.5-0.2-0.7C100.4,237.5,100.4,237.4,100.5,237.2C100.5,237.3,100.5,237.3,100.5,237.2
				C100.5,237.3,100.5,237.3,100.5,237.2z M98,238.7c0.1,0,0.2-0.1,0.3-0.1c0.1-0.1,0.2-0.1,0.2-0.3c0-0.1,0-0.2,0-0.2
				c0-0.1-0.1-0.2-0.1-0.3c0,0,0-0.1-0.1-0.1c-0.2-0.1-0.4,0-0.6,0.1c-0.2,0.1-0.3,0.4-0.2,0.6C97.7,238.5,97.9,238.7,98,238.7z
				 M100.4,238.2c0-0.2-0.1-0.3-0.2-0.4c-0.1-0.1-0.3-0.1-0.4-0.1c-0.1,0-0.2,0-0.3,0.1c0,0.1-0.1,0.3-0.1,0.4c0,0.1,0,0.2,0.1,0.2
				c0.1,0.1,0.3,0.2,0.5,0.2c0.1,0,0.1,0,0.2,0C100.3,238.6,100.4,238.4,100.4,238.2z M99.1,239.2c0.2,0,0.3,0,0.3-0.1
				c0-0.1,0-0.1,0-0.2c-0.1-0.2-0.1-0.4-0.2-0.6c0,0,0,0-0.1,0C99.1,238.6,99.1,238.9,99.1,239.2z M98.9,238.3
				C98.9,238.3,98.9,238.3,98.9,238.3c-0.2,0.3-0.3,0.5-0.3,0.7c0,0,0,0.1,0,0.1c0.1,0.1,0.1,0.1,0.3,0.1
				C98.9,238.9,98.9,238.6,98.9,238.3z"/>
			<path fill="#DA2C27" d="M100.7,239.2c0,0.2-0.1,0.3-0.2,0.4c-0.1,0.1-0.1,0.1-0.1,0.2c0,0.1,0,0.2,0,0.3c0,0.3-0.1,0.5-0.4,0.6
				c-0.2,0.1-0.3,0.2-0.5,0.3c-0.1,0.1-0.2,0.1-0.4,0c-0.1,0-0.2,0-0.4,0c-0.1,0-0.2,0-0.3,0c-0.3-0.1-0.5-0.3-0.7-0.5
				c-0.1-0.1-0.1-0.2-0.1-0.3c0-0.2,0-0.3,0-0.5c0-0.1,0-0.2-0.1-0.2c-0.1-0.1-0.2-0.3-0.2-0.4c0,0,0-0.1,0-0.1
				c0.1,0.2,0.2,0.2,0.4,0.2c0.1,0,0.2,0,0.2,0.1c0.1,0.1,0.2,0.2,0.1,0.4c0,0.1,0.1,0.2,0.2,0.2c0.1,0.1,0.3,0.1,0.4,0.1
				c0.2,0.1,0.4,0.1,0.6,0c0.2,0,0.5-0.1,0.6-0.2c0,0,0.1-0.1,0.1-0.1c0-0.2,0.1-0.4,0.3-0.5c0,0,0,0,0.1,0
				C100.4,239.4,100.6,239.3,100.7,239.2z"/>
		</g>
	</g>
	<path fill="none" stroke="#DA2C27" stroke-miterlimit="10" d="M99,251.9c0,19.9,90.7,36,202.5,36s202.5-16.1,202.5-36"/>
	<path fill="none" stroke="#3B4375" stroke-miterlimit="10" d="M99,251.9c0,29.8,90.7,54,202.5,54s202.5-24.2,202.5-54"/>
	<rect x="265.5" y="278.9" fill="#DA2C27" width="72" height="13.5"/>
	<text transform="matrix(1.0785 0 0 1 284.5249 287.8979)" fill="#FFFFFF" font-family="'Montserrat-Regular'" font-size="8">T800 (1)</text>
	<text transform="matrix(1.0785 0 0 1 277.6348 307.8979)" fill="#FFFFFF" font-family="'Montserrat-Regular'" font-size="8">Kyle Reese</text>
	<g>
		<path fill="none" stroke="#3B4375" stroke-miterlimit="10" d="M99,251.9c0,29.8,90.7,54,202.5,54s202.5-24.2,202.5-54"/>
		<text transform="matrix(1.0785 0 0 1 277.6348 307.8979)" fill="#FFFFFF" font-family="'Montserrat-Regular'" font-size="8">Kyle Reese</text>
	</g>
	<circle fill="#FFFFFF" stroke="#DA2C27" stroke-miterlimit="10" cx="99" cy="251.9" r="4.5"/>
	<circle fill="#FFFFFF" stroke="#3B4375" stroke-miterlimit="10" cx="99" cy="251.9" r="4.5"/>
	<circle fill="#FFFFFF" stroke="#DA2C27" stroke-miterlimit="10" cx="504.2" cy="251.9" r="4.7"/>
</g>
<g id="Timeline">
	<g>
		<defs>
			<rect id="SVGID_14_" y="413.9" width="657" height="90"/>
		</defs>
		<clipPath id="SVGID_15_">
			<use xlink:href="#SVGID_14_"  overflow="visible"/>
		</clipPath>
		<g clip-path="url(#SVGID_15_)">
			<line fill="none" stroke="#6B7780" stroke-width="0.5" stroke-miterlimit="10" x1="418.5" y1="494.9" x2="418.5" y2="503.9"/>
			<rect x="396" y="485.9" fill="none" width="45" height="18"/>
			<text transform="matrix(1 0 0 1 408.2842 491.8334)" fill="#6B7780" font-family="'Montserrat-Regular'" font-size="8">2020</text>
		</g>
		<g clip-path="url(#SVGID_15_)">
			<line fill="none" stroke="#6B7780" stroke-width="0.5" stroke-miterlimit="10" x1="463.5" y1="494.9" x2="463.5" y2="503.9"/>
			<rect x="441" y="485.9" fill="none" width="45" height="18"/>
			<text transform="matrix(1 0 0 1 453.7197 491.8334)" fill="#6B7780" font-family="'Montserrat-Regular'" font-size="8">2025</text>
		</g>
		<g clip-path="url(#SVGID_15_)">
			<line fill="none" stroke="#6B7780" stroke-width="0.5" stroke-miterlimit="10" x1="508.5" y1="494.9" x2="508.5" y2="503.9"/>
			<g>
				<rect x="486" y="485.9" fill="none" width="45" height="18"/>
				<text transform="matrix(1 0 0 1 498.3281 491.8334)" fill="#6B7780" font-family="'Montserrat-Regular'" font-size="8">2030</text>
			</g>
		</g>
		<g clip-path="url(#SVGID_15_)">
			<line fill="none" stroke="#6B7780" stroke-width="0.5" stroke-miterlimit="10" x1="553.5" y1="494.9" x2="553.5" y2="503.9"/>
			<rect x="531" y="485.9" fill="none" width="45" height="18"/>
			<text transform="matrix(1 0 0 1 543.7637 491.8334)" fill="#6B7780" font-family="'Montserrat-Regular'" font-size="8">2035</text>
		</g>
		<g clip-path="url(#SVGID_15_)">
			<line fill="none" stroke="#6B7780" stroke-width="0.5" stroke-miterlimit="10" x1="598.5" y1="494.9" x2="598.5" y2="503.9"/>
			<rect x="576" y="485.9" fill="none" width="45" height="18"/>
			<text transform="matrix(1 0 0 1 588.3525 491.8334)" fill="#6B7780" font-family="'Montserrat-Regular'" font-size="8">2040</text>
		</g>
		<g clip-path="url(#SVGID_15_)">
			<line fill="none" stroke="#6B7780" stroke-width="0.5" stroke-miterlimit="10" x1="643.5" y1="494.9" x2="643.5" y2="503.9"/>
			<rect x="621" y="485.9" fill="none" width="45" height="18"/>
			<text transform="matrix(1 0 0 1 633.7881 491.8334)" fill="#6B7780" font-family="'Montserrat-Regular'" font-size="8">2045</text>
		</g>
		<g clip-path="url(#SVGID_15_)">
			<line fill="none" stroke="#6B7780" stroke-width="0.5" stroke-miterlimit="10" x1="688.5" y1="494.9" x2="688.5" y2="503.9"/>
			<rect x="666" y="485.9" fill="none" width="45" height="18"/>
			<text transform="matrix(1 0 0 1 678.3242 491.8334)" fill="#6B7780" font-family="'Montserrat-Regular'" font-size="8">2050</text>
		</g>
		<g clip-path="url(#SVGID_15_)">
			<line fill="none" stroke="#6B7780" stroke-width="0.5" stroke-miterlimit="10" x1="103.5" y1="494.9" x2="103.5" y2="503.9"/>
			<rect x="81" y="485.9" fill="none" width="45" height="18"/>
			<text transform="matrix(1 0 0 1 94.6406 491.8334)" fill="#6B7780" font-family="'Montserrat-Regular'" font-size="8">1985</text>
		</g>
		<g clip-path="url(#SVGID_15_)">
			<line fill="none" stroke="#6B7780" stroke-width="0.5" stroke-miterlimit="10" x1="58.5" y1="494.9" x2="58.5" y2="503.9"/>
			<rect x="36" y="485.9" fill="none" width="45" height="18"/>
			<text transform="matrix(1 0 0 1 49.2041 491.8334)" fill="#6B7780" font-family="'Montserrat-Regular'" font-size="8">1980</text>
		</g>
		<g clip-path="url(#SVGID_15_)">
			<line fill="none" stroke="#6B7780" stroke-width="0.5" stroke-miterlimit="10" x1="13.5" y1="494.9" x2="13.5" y2="503.9"/>
			<rect x="-9" y="485.9" fill="none" width="45" height="18"/>
			<text transform="matrix(1 0 0 1 4.9199 491.8334)" fill="#6B7780" font-family="'Montserrat-Regular'" font-size="8">1975</text>
		</g>
		<g clip-path="url(#SVGID_15_)">
			<line fill="none" stroke="#6B7780" stroke-width="0.5" stroke-miterlimit="10" x1="-31.5" y1="494.9" x2="-31.5" y2="503.9"/>
			<rect x="-54" y="485.9" fill="none" width="45" height="18"/>
			<text transform="matrix(1 0 0 1 -40.5156 491.8334)" fill="#6B7780" font-family="'Montserrat-Regular'" font-size="8">1970</text>
		</g>
		<g clip-path="url(#SVGID_15_)">
			<line fill="none" stroke="#6B7780" stroke-width="0.5" stroke-miterlimit="10" x1="148.5" y1="494.9" x2="148.5" y2="503.9"/>
			<rect x="126" y="485.9" fill="none" width="45" height="18"/>
			<text transform="matrix(1 0 0 1 139.2725 491.8334)" fill="#6B7780" font-family="'Montserrat-Regular'" font-size="8">1990</text>
		</g>
		<g clip-path="url(#SVGID_15_)">
			<line fill="none" stroke="#6B7780" stroke-width="0.5" stroke-miterlimit="10" x1="193.5" y1="494.9" x2="193.5" y2="503.9"/>
			<rect x="171" y="485.9" fill="none" width="45" height="18"/>
			<text transform="matrix(1 0 0 1 184.708 491.8334)" fill="#6B7780" font-family="'Montserrat-Regular'" font-size="8">1995</text>
		</g>
		<g clip-path="url(#SVGID_15_)">
			<line fill="none" stroke="#6B7780" stroke-width="0.5" stroke-miterlimit="10" x1="238.5" y1="494.9" x2="238.5" y2="503.9"/>
			<rect x="216" y="485.9" fill="none" width="45" height="18"/>
			<text transform="matrix(1 0 0 1 227.8887 491.8334)" fill="#6B7780" font-family="'Montserrat-Regular'" font-size="8">2000</text>
		</g>
		<g clip-path="url(#SVGID_15_)">
			<line fill="none" stroke="#6B7780" stroke-width="0.5" stroke-miterlimit="10" x1="283.5" y1="494.9" x2="283.5" y2="503.9"/>
			<rect x="261" y="485.9" fill="none" width="45" height="18"/>
			<text transform="matrix(1 0 0 1 273.3242 491.8334)" fill="#6B7780" font-family="'Montserrat-Regular'" font-size="8">2005</text>
		</g>
		<g clip-path="url(#SVGID_15_)">
			<line fill="none" stroke="#6B7780" stroke-width="0.5" stroke-miterlimit="10" x1="328.5" y1="494.9" x2="328.5" y2="503.9"/>
			<rect x="306" y="485.9" fill="none" width="45" height="18"/>
			<text transform="matrix(1 0 0 1 319.1162 491.8334)" fill="#6B7780" font-family="'Montserrat-Regular'" font-size="8">2010</text>
		</g>
		<g clip-path="url(#SVGID_15_)">
			<line fill="none" stroke="#6B7780" stroke-width="0.5" stroke-miterlimit="10" x1="373.5" y1="494.9" x2="373.5" y2="503.9"/>
			<rect x="351" y="485.9" fill="none" width="45" height="18"/>
			<text transform="matrix(1 0 0 1 364.5518 491.8334)" fill="#6B7780" font-family="'Montserrat-Regular'" font-size="8">2015</text>
		</g>
	</g>
</g>
</svg>
