<?xml version="1.0" encoding="UTF-8" standalone="no"?>
<svg width="40px" height="40px" viewBox="0 0 40 40" version="1.1" xmlns="http://www.w3.org/2000/svg" xmlns:xlink="http://www.w3.org/1999/xlink" xmlns:sketch="http://www.bohemiancoding.com/sketch/ns">
    <!-- Generator: Sketch 3.0.4 (8053) - http://www.bohemiancoding.com/sketch -->
    <title>Untitled 2</title>
    <desc>Created with Sketch.</desc>
    <defs></defs>
    <g id="Page-1" stroke="none" stroke-width="1" fill="none" fill-rule="evenodd" sketch:type="MSPage">
        <path d="M29.5904704,35.7318889 L28.7508276,26.8940556 L28.2615419,25.3246667 L28.764399,24.1806667 C28.8308276,24.5172222 28.9033276,24.7089722 28.9033276,24.7089722 L29.2047561,25.7020278 L29.7704704,26.2563333 C29.7704704,26.2563333 29.9154704,26.5040556 30.4158276,26.1873611 C32.5901133,26.6131111 34.4454704,23.9600278 34.4454704,23.9600278 L35.9033276,15.0116944 C35.9233276,14.9921944 36.2933276,14.24325 36.2933276,14.24325 C36.3776133,14.0702778 36.4433276,13.8976667 36.4940419,13.7275833 L36.9454704,13.7824722 C37.784399,15.8494722 38.2504704,18.11075 38.2504704,20.4836111 C38.2504704,26.9883056 34.769399,32.6682222 29.5904704,35.7318889 L29.5904704,35.7318889 Z M3.32082757,20.4836111 C3.32082757,17.3961111 4.10654186,14.4953056 5.48297043,11.9704167 C6.059399,11.9379167 6.81868471,11.9711389 8.03368471,12.2719444 L10.636899,11.9881111 L15.8222561,12.3141944 C15.1283276,12.5926111 14.326899,12.9508333 13.6626133,13.3480556 C13.6626133,13.3480556 10.7729704,13.6853333 9.63011328,14.6379444 C9.63011328,14.6379444 7.584399,17.2736944 7.844399,19.1215 C8.24475614,21.9623611 8.289399,22.29675 8.289399,22.29675 C8.289399,22.29675 6.77297043,25.7464444 7.05225614,29.5648333 C7.13297043,30.6716389 7.18868471,31.2754167 7.22547043,31.6087222 C4.78547043,28.5717778 3.32082757,24.7013889 3.32082757,20.4836111 L3.32082757,20.4836111 Z M26.3826133,12.8114444 L28.629399,13.1942222 L31.0858276,13.1750833 L30.996899,13.4101667 C30.996899,13.4101667 31.1815419,14.2219444 32.351899,14.7213611 C32.3883276,14.7368889 32.2229704,15.6692778 32.0436847,16.2820833 C32.0436847,16.2820833 31.766899,16.6793056 31.411899,17.1826944 C30.8704704,15.4984722 29.6015419,14.26275 29.6015419,14.26275 C29.6015419,14.26275 28.8015419,13.5766389 27.1797561,13.2852222 C26.9161847,13.1104444 26.6497561,12.953 26.3826133,12.8114444 L26.3826133,12.8114444 Z M11.3008276,29.0845556 C11.2561847,29.0802222 11.3986847,27.8679722 11.5072561,27.1443056 C11.5072561,27.1443056 12.7308276,25.3141944 12.7704704,24.3027222 C12.8258276,22.8864444 12.7065419,22.6524444 12.7065419,22.6524444 C12.7065419,22.6524444 13.3340419,21.9941389 13.6440419,21.6572222 C13.8308276,23.0543611 14.1376133,24.3012778 14.1376133,24.3012778 L13.3279704,28.1918889 L12.9722561,36.2764444 C11.344399,35.4513056 9.86225614,34.3777222 8.57404186,33.1033611 L9.30511328,33.2048333 L9.81725614,33.5442778 L11.4436847,33.3377222 L11.7061847,32.3471944 L12.4358276,32.3753611 L12.6604704,30.5846111 C12.6604704,30.5846111 12.6651133,29.2102222 11.3008276,29.0845556 L11.3008276,29.0845556 Z M20.7854704,2.82491667 C27.0822561,2.82491667 32.5990419,6.19480556 35.671899,11.2478333 L35.5336847,11.1835556 L34.5479704,10.5176667 L33.7479704,10.7054444 L32.8676133,10.6072222 L32.4958276,11.1629722 L31.8183276,11.2250833 L31.6536847,11.6623889 L30.1715419,11.2066667 L26.8608276,11.0282778 L23.3615419,9.66833333 C23.3022561,7.597 22.2179704,7.04847222 22.2179704,7.04847222 C22.2179704,7.04847222 21.7736847,6.77186111 20.4415419,6.79244444 C19.6240419,6.80580556 19.0751133,7.51863889 18.7401133,8.18525 L13.6479704,6.98275 L10.7497561,6.64366667 L10.1626133,6.47069444 C13.1061847,4.18594444 16.7876133,2.82491667 20.7854704,2.82491667 L20.7854704,2.82491667 Z M20.7854704,0.98 C15.909399,0.98 11.4536847,2.82275 8.05368471,5.85030556 L7.94975614,5.81961111 C7.94975614,5.81961111 7.039399,5.65277778 5.59618471,5.80408333 C3.39082757,6.03627778 0.369041856,5.70766667 0.0433275701,8.26902778 C-0.249529573,10.5808611 0.95582757,11.4962778 3.43618471,11.9678889 C2.19511328,14.5426111 1.496899,17.4318611 1.496899,20.4836111 C1.496899,31.2378611 10.1497561,39.9872222 20.7854704,39.9872222 C31.4215419,39.9872222 40.074399,31.2378611 40.074399,20.4836111 C40.074399,9.729 31.4215419,0.98 20.7854704,0.98 L20.7854704,0.98 Z" id="Fill-13" fill="#2B4D74" sketch:type="MSShapeGroup"></path>
    </g>
</svg>